<svg width="20" height="20" viewBox="0 0 20 20" fill="none" xmlns="http://www.w3.org/2000/svg">
<g id="status">
<path id="Subtract" fill-rule="evenodd" clip-rule="evenodd" d="M17.5 10C17.5 14.1421 14.1421 17.5 10 17.5C5.85786 17.5 2.5 14.1421 2.5 10C2.5 5.85786 5.85786 2.5 10 2.5C14.1421 2.5 17.5 5.85786 17.5 10ZM12.6105 8.17865C12.9093 7.87984 13.3938 7.87984 13.6926 8.17865C13.9914 8.47746 13.9914 8.96192 13.6926 9.26073L9.94257 13.0107C9.64376 13.3095 9.1593 13.3095 8.86049 13.0107L6.81503 10.9653C6.51622 10.6665 6.51622 10.182 6.81503 9.88319C7.11384 9.58438 7.59831 9.58438 7.89712 9.88319L9.40153 11.3876L12.6105 8.17865Z" fill="#2375E1"/>
</g>
</svg>
